<svg width="494" height="372" viewBox="0 0 494 372" fill="none" xmlns="http://www.w3.org/2000/svg">
<g clip-path="url(#clip0)">
<path d="M284.678 18.1053C288.915 27.1007 279.936 29.6487 269.651 34.4701C259.366 39.2915 251.669 44.5606 247.431 35.5652C243.194 26.5698 239.756 8.71564 254.306 1.89491C269.358 -5.16078 280.441 9.10995 284.678 18.1053Z" fill="#2F2E41"/>
<path d="M263.693 35.7957C271.34 35.7957 277.539 29.6115 277.539 21.983C277.539 14.3545 271.34 8.17033 263.693 8.17033C256.046 8.17033 249.847 14.3545 249.847 21.983C249.847 29.6115 256.046 35.7957 263.693 35.7957Z" fill="#FFB8B8"/>
<path d="M332.29 83.2394C331.811 82.6151 331.332 82.0021 330.847 81.406C330.221 80.6299 329.592 79.8782 328.958 79.1509C321.782 70.8895 314.149 65.6874 305.743 65.1307H305.732L305.608 65.1194L288.859 81.406L283.165 86.9398L283.289 87.2435L286.361 94.875H340.194C337.768 90.8593 335.13 86.9752 332.29 83.2394Z" fill="#2F2E41"/>
<path d="M248.636 27.5439L253.593 25.2205L252.902 18.0876L256.216 23.9905L258.585 22.88L258.183 18.7191L260.116 22.1625L277.719 13.9109C276.066 10.4011 273.082 7.69024 269.426 6.37466C265.769 5.05908 261.738 5.24655 258.219 6.89581L255.668 8.0917C252.15 9.74098 249.432 12.717 248.114 16.365C246.795 20.013 246.983 24.0342 248.636 27.5439Z" fill="#2F2E41"/>
<path d="M363.353 278.266H74.2391C71.773 278.264 69.4086 277.285 67.6648 275.546C65.9209 273.806 64.94 271.447 64.9372 268.987V95.6871C64.9392 93.8848 65.6578 92.1568 66.9354 90.8823C68.2129 89.6079 69.9451 88.8909 71.7518 88.8889H365.722C367.56 88.8909 369.322 89.6203 370.622 90.9168C371.922 92.2133 372.653 93.9711 372.655 95.8047V268.987C372.652 271.447 371.671 273.806 369.927 275.546C368.183 277.285 365.819 278.264 363.353 278.266Z" fill="#F2F2F2"/>
<path d="M83.2592 268.987H354.333C356.725 268.987 359.019 268.039 360.711 266.352C362.403 264.664 363.353 262.375 363.353 259.989V112.899C363.353 110.513 362.403 108.224 360.711 106.537C359.019 104.849 356.725 103.901 354.333 103.901H83.2592C80.8669 103.901 78.5726 104.849 76.8811 106.537C75.1895 108.224 74.2392 110.513 74.2392 112.899V259.989C74.2392 262.375 75.1895 264.664 76.8811 266.352C78.5726 268.039 80.8669 268.987 83.2592 268.987Z" fill="white"/>
<path d="M372.525 95.1564H64.8067V90.4321C64.8103 87.9638 65.7952 85.5976 67.5454 83.8528C69.2956 82.1079 71.6681 81.1269 74.1425 81.1248H363.19C365.664 81.1269 368.036 82.1079 369.787 83.8528C371.537 85.5976 372.522 87.9638 372.525 90.4321V95.1564Z" fill="#065A7C"/>
<path d="M81.773 90.5635C83.1067 90.5635 84.1878 89.485 84.1878 88.1546C84.1878 86.8242 83.1067 85.7457 81.773 85.7457C80.4394 85.7457 79.3582 86.8242 79.3582 88.1546C79.3582 89.485 80.4394 90.5635 81.773 90.5635Z" fill="white"/>
<path d="M90.9389 90.5635C92.2726 90.5635 93.3537 89.485 93.3537 88.1546C93.3537 86.8242 92.2726 85.7457 90.9389 85.7457C89.6053 85.7457 88.5241 86.8242 88.5241 88.1546C88.5241 89.485 89.6053 90.5635 90.9389 90.5635Z" fill="white"/>
<path d="M100.105 90.5635C101.439 90.5635 102.52 89.485 102.52 88.1546C102.52 86.8242 101.439 85.7457 100.105 85.7457C98.7712 85.7457 97.6901 86.8242 97.6901 88.1546C97.6901 89.485 98.7712 90.5635 100.105 90.5635Z" fill="white"/>
<path d="M227.254 237.088H203.013C201.593 237.087 200.232 236.523 199.228 235.522C198.224 234.52 197.659 233.162 197.657 231.746V207.563C197.659 206.147 198.224 204.789 199.228 203.787C200.232 202.786 201.593 202.222 203.013 202.221H227.254C228.674 202.222 230.035 202.786 231.04 203.787C232.044 204.789 232.608 206.147 232.61 207.563V231.746C232.608 233.162 232.044 234.52 231.04 235.522C230.035 236.523 228.674 237.087 227.254 237.088ZM203.013 203.345C201.892 203.347 200.817 203.791 200.025 204.582C199.232 205.373 198.786 206.445 198.785 207.563V231.746C198.786 232.864 199.232 233.936 200.025 234.727C200.817 235.517 201.892 235.962 203.013 235.964H227.254C228.375 235.962 229.45 235.517 230.243 234.727C231.035 233.936 231.481 232.864 231.482 231.746V207.563C231.481 206.445 231.035 205.373 230.243 204.582C229.45 203.791 228.375 203.347 227.254 203.345H203.013Z" fill="#CCCCCC"/>
<path d="M222.462 230.34H207.805C207.356 230.339 206.927 230.161 206.609 229.845C206.292 229.529 206.114 229.1 206.114 228.653V210.656C206.114 210.209 206.292 209.78 206.609 209.464C206.927 209.148 207.356 208.97 207.805 208.969H218.426C218.811 208.97 219.185 209.101 219.485 209.341L223.522 212.577C223.719 212.735 223.879 212.935 223.988 213.163C224.098 213.39 224.154 213.64 224.154 213.892V228.653C224.153 229.1 223.975 229.529 223.658 229.845C223.341 230.161 222.911 230.339 222.462 230.34ZM207.805 210.094C207.655 210.094 207.512 210.153 207.406 210.259C207.301 210.364 207.241 210.507 207.241 210.656V228.653C207.241 228.802 207.301 228.945 207.406 229.05C207.512 229.155 207.655 229.215 207.805 229.215H222.462C222.612 229.215 222.755 229.155 222.861 229.05C222.966 228.945 223.026 228.802 223.026 228.653V213.892C223.026 213.808 223.007 213.725 222.971 213.649C222.935 213.573 222.881 213.506 222.816 213.454L218.778 210.218C218.678 210.138 218.554 210.094 218.426 210.094H207.805Z" fill="#CCCCCC"/>
<path d="M219.644 216.843H210.624C210.474 216.843 210.331 216.783 210.225 216.678C210.119 216.572 210.06 216.429 210.06 216.28C210.06 216.131 210.119 215.988 210.225 215.882C210.331 215.777 210.474 215.718 210.624 215.718H219.644C219.793 215.718 219.937 215.777 220.042 215.882C220.148 215.988 220.207 216.131 220.207 216.28C220.207 216.429 220.148 216.572 220.042 216.678C219.937 216.783 219.793 216.843 219.644 216.843Z" fill="#CCCCCC"/>
<path d="M219.644 220.217H210.624C210.474 220.217 210.331 220.158 210.225 220.052C210.119 219.947 210.06 219.804 210.06 219.654C210.06 219.505 210.119 219.362 210.225 219.257C210.331 219.151 210.474 219.092 210.624 219.092H219.644C219.793 219.092 219.937 219.151 220.042 219.257C220.148 219.362 220.207 219.505 220.207 219.654C220.207 219.804 220.148 219.947 220.042 220.052C219.937 220.158 219.793 220.217 219.644 220.217Z" fill="#CCCCCC"/>
<path d="M219.644 223.591H210.624C210.474 223.591 210.331 223.532 210.225 223.426C210.119 223.321 210.06 223.178 210.06 223.029C210.06 222.88 210.119 222.737 210.225 222.631C210.331 222.526 210.474 222.466 210.624 222.466H219.644C219.793 222.466 219.937 222.526 220.042 222.631C220.148 222.737 220.207 222.88 220.207 223.029C220.207 223.178 220.148 223.321 220.042 223.426C219.937 223.532 219.793 223.591 219.644 223.591Z" fill="#CCCCCC"/>
<path d="M284.757 237.088H260.516C259.096 237.087 257.734 236.523 256.73 235.522C255.726 234.52 255.162 233.162 255.16 231.746V207.563C255.162 206.147 255.726 204.789 256.73 203.787C257.734 202.786 259.096 202.222 260.516 202.221H284.757C286.177 202.222 287.538 202.786 288.542 203.787C289.546 204.789 290.111 206.147 290.113 207.563V231.746C290.111 233.162 289.546 234.52 288.542 235.522C287.538 236.523 286.177 237.087 284.757 237.088ZM260.516 203.345C259.395 203.347 258.32 203.791 257.527 204.582C256.735 205.373 256.289 206.445 256.287 207.563V231.746C256.289 232.864 256.735 233.936 257.527 234.727C258.32 235.517 259.395 235.962 260.516 235.964H284.757C285.878 235.962 286.953 235.517 287.745 234.727C288.538 233.936 288.984 232.864 288.985 231.746V207.563C288.984 206.445 288.538 205.373 287.745 204.582C286.953 203.791 285.878 203.347 284.757 203.345H260.516Z" fill="#CCCCCC"/>
<path d="M280.529 225.841H264.744C264.295 225.84 263.865 225.662 263.548 225.346C263.231 225.03 263.053 224.601 263.053 224.153V215.155C263.053 214.708 263.231 214.279 263.548 213.963C263.865 213.647 264.295 213.469 264.744 213.468H280.529C280.977 213.469 281.407 213.647 281.724 213.963C282.041 214.279 282.22 214.708 282.22 215.155V224.153C282.22 224.601 282.041 225.03 281.724 225.346C281.407 225.662 280.977 225.84 280.529 225.841ZM264.744 214.593C264.594 214.593 264.451 214.652 264.345 214.758C264.24 214.863 264.18 215.006 264.18 215.155V224.153C264.18 224.303 264.24 224.446 264.345 224.551C264.451 224.656 264.594 224.716 264.744 224.716H280.529C280.678 224.716 280.822 224.656 280.927 224.551C281.033 224.446 281.092 224.303 281.093 224.153V215.155C281.092 215.006 281.033 214.863 280.927 214.758C280.822 214.652 280.678 214.593 280.529 214.593H264.744Z" fill="#CCCCCC"/>
<path d="M272.636 221.138C272.32 221.139 272.009 221.05 271.74 220.884L263.317 215.632C263.191 215.553 263.101 215.427 263.068 215.282C263.034 215.137 263.06 214.984 263.139 214.858C263.218 214.731 263.344 214.642 263.49 214.608C263.635 214.574 263.788 214.6 263.915 214.678L272.338 219.93C272.428 219.985 272.531 220.014 272.637 220.014C272.742 220.014 272.846 219.985 272.935 219.93L281.357 214.678C281.484 214.6 281.637 214.574 281.783 214.608C281.928 214.642 282.054 214.731 282.134 214.858C282.213 214.984 282.238 215.137 282.205 215.282C282.172 215.427 282.082 215.553 281.955 215.632L273.533 220.884C273.264 221.05 272.953 221.139 272.636 221.138Z" fill="#CCCCCC"/>
<path d="M169.752 237.088H145.51C144.09 237.087 142.729 236.523 141.725 235.522C140.721 234.52 140.156 233.162 140.155 231.746V207.563C140.156 206.147 140.721 204.789 141.725 203.787C142.729 202.786 144.09 202.222 145.51 202.221H169.752C171.171 202.222 172.533 202.786 173.537 203.787C174.541 204.789 175.106 206.147 175.107 207.563V231.746C175.106 233.162 174.541 234.52 173.537 235.522C172.533 236.523 171.171 237.087 169.752 237.088ZM145.51 203.345C144.389 203.347 143.314 203.791 142.522 204.582C141.729 205.373 141.283 206.445 141.282 207.563V231.746C141.283 232.864 141.729 233.936 142.522 234.727C143.314 235.517 144.389 235.962 145.51 235.964H169.752C170.873 235.962 171.947 235.517 172.74 234.727C173.533 233.936 173.978 232.864 173.98 231.746V207.563C173.978 206.445 173.533 205.373 172.74 204.582C171.947 203.791 170.873 203.347 169.752 203.345H145.51Z" fill="#CCCCCC"/>
<path d="M165.523 225.841H149.738C149.29 225.84 148.86 225.662 148.543 225.346C148.226 225.03 148.048 224.601 148.047 224.153V215.155C148.048 214.708 148.226 214.279 148.543 213.963C148.86 213.647 149.29 213.469 149.738 213.468H165.523C165.972 213.469 166.402 213.647 166.719 213.963C167.036 214.279 167.214 214.708 167.215 215.155V224.153C167.214 224.601 167.036 225.03 166.719 225.346C166.402 225.662 165.972 225.84 165.523 225.841ZM149.738 214.593C149.589 214.593 149.446 214.652 149.34 214.758C149.234 214.863 149.175 215.006 149.175 215.155V224.153C149.175 224.303 149.234 224.446 149.34 224.551C149.446 224.656 149.589 224.716 149.738 224.716H165.523C165.673 224.716 165.816 224.656 165.922 224.551C166.028 224.446 166.087 224.303 166.087 224.153V215.155C166.087 215.006 166.028 214.863 165.922 214.758C165.816 214.652 165.673 214.593 165.523 214.593H149.738Z" fill="#CCCCCC"/>
<path d="M163.021 225.841H151.676C151.479 225.841 151.284 225.789 151.113 225.69C150.941 225.591 150.799 225.449 150.7 225.278C150.601 225.107 150.549 224.913 150.549 224.716C150.549 224.518 150.601 224.324 150.7 224.153L154.117 218.248C154.216 218.077 154.359 217.936 154.53 217.837C154.701 217.738 154.896 217.686 155.094 217.686C155.292 217.686 155.486 217.738 155.658 217.837C155.829 217.936 155.971 218.077 156.07 218.248L158.277 222.062L159.556 219.853C159.655 219.682 159.797 219.54 159.969 219.441C160.14 219.342 160.335 219.29 160.533 219.29C160.731 219.29 160.925 219.342 161.096 219.441C161.268 219.54 161.41 219.682 161.509 219.853L163.998 224.153C164.097 224.324 164.149 224.518 164.149 224.716C164.149 224.913 164.097 225.107 163.998 225.278C163.899 225.449 163.757 225.591 163.585 225.69C163.414 225.789 163.219 225.841 163.021 225.841H163.021ZM163.021 224.716L160.532 220.415L158.766 223.468C158.716 223.554 158.645 223.625 158.559 223.674C158.474 223.723 158.376 223.749 158.277 223.749C158.179 223.749 158.081 223.723 157.996 223.674C157.91 223.625 157.839 223.554 157.789 223.468L155.094 218.811L151.677 224.716H163.021Z" fill="#CCCCCC"/>
<path d="M163.832 217.967C164.455 217.967 164.96 217.464 164.96 216.842C164.96 216.221 164.455 215.718 163.832 215.718C163.209 215.718 162.705 216.221 162.705 216.842C162.705 217.464 163.209 217.967 163.832 217.967Z" fill="#CCCCCC"/>
<path d="M433.427 364.508L426.515 364.507L423.227 337.913L433.428 337.914L433.427 364.508Z" fill="#FFB8B8"/>
<path d="M435.189 371.191L412.904 371.19V370.909C412.904 369.772 413.128 368.647 413.564 367.597C414 366.548 414.639 365.594 415.444 364.79C416.25 363.987 417.206 363.349 418.259 362.914C419.311 362.48 420.439 362.256 421.578 362.256H421.579L435.19 362.256L435.189 371.191Z" fill="#2F2E41"/>
<path d="M461.614 364.508L454.703 364.507L451.415 337.913L461.615 337.914L461.614 364.508Z" fill="#FFB8B8"/>
<path d="M463.377 371.191L441.091 371.19V370.909C441.091 369.772 441.316 368.647 441.752 367.597C442.188 366.548 442.827 365.594 443.632 364.79C444.438 363.987 445.394 363.349 446.446 362.914C447.499 362.48 448.626 362.256 449.766 362.256H449.766L463.377 362.256L463.377 371.191Z" fill="#2F2E41"/>
<path d="M459.542 352.979L453.141 351.036C452.664 350.892 452.24 350.611 451.923 350.227C451.605 349.844 451.408 349.375 451.357 348.881L445.389 292.459C445.384 292.391 445.354 292.327 445.304 292.28C445.253 292.234 445.187 292.208 445.119 292.208C445.05 292.201 444.982 292.221 444.928 292.264C444.874 292.307 444.84 292.37 444.831 292.438L434.835 347.101C434.775 347.432 434.648 347.749 434.463 348.031C434.278 348.313 434.039 348.556 433.759 348.744C433.478 348.933 433.163 349.064 432.832 349.129C432.5 349.194 432.159 349.193 431.828 349.125L423.647 347.444C423.047 347.319 422.512 346.982 422.142 346.495C421.771 346.008 421.588 345.404 421.628 344.794L427.708 255.2L468.94 250.762L462.813 350.712C462.773 351.354 462.49 351.958 462.02 352.399C461.551 352.841 460.93 353.088 460.285 353.089C460.033 353.089 459.783 353.052 459.542 352.979Z" fill="#2F2E41"/>
<path d="M459.503 177.177C467.15 177.177 473.35 170.993 473.35 163.364C473.35 155.736 467.15 149.552 459.503 149.552C451.856 149.552 445.657 155.736 445.657 163.364C445.657 170.993 451.856 177.177 459.503 177.177Z" fill="#FFB8B8"/>
<path d="M427.645 255.726L436.585 199.572C437.06 196.586 438.167 193.735 439.833 191.21C441.499 188.684 443.684 186.542 446.244 184.924C448.805 183.307 451.681 182.252 454.682 181.83C457.682 181.408 460.739 181.628 463.648 182.475C468.734 183.943 473.088 187.249 475.862 191.748C478.635 196.247 479.627 201.616 478.644 206.805L469.291 256.954L427.645 255.726Z" fill="#87CEEB"/>
<path d="M463.326 265.773C464.017 265.318 464.6 264.717 465.034 264.012C465.467 263.307 465.741 262.516 465.834 261.695C465.928 260.873 465.841 260.042 465.577 259.258C465.314 258.474 464.882 257.757 464.311 257.158L473.554 239.301L463.144 240.41L455.963 257.196C455.017 258.22 454.481 259.554 454.456 260.946C454.43 262.338 454.918 263.69 455.825 264.747C456.733 265.805 457.998 266.493 459.38 266.682C460.762 266.871 462.166 266.548 463.326 265.773V265.773Z" fill="#FFB8B8"/>
<path d="M465.305 254.008C464.794 253.936 464.317 253.71 463.937 253.361L460.401 250.101C460.019 249.747 459.755 249.285 459.645 248.776C459.534 248.268 459.583 247.738 459.785 247.259L466.853 230.546L465.85 197.523C465.995 196.461 466.347 195.438 466.888 194.513C467.428 193.587 468.146 192.777 469.001 192.128C469.856 191.48 470.83 191.006 471.869 190.733C472.907 190.46 473.989 190.394 475.053 190.539C476.117 190.684 477.142 191.037 478.07 191.577C478.997 192.117 479.809 192.834 480.458 193.687C481.107 194.541 481.582 195.513 481.854 196.549C482.126 197.586 482.191 198.665 482.045 199.726L483.76 220.485C484.281 226.786 482.49 233.06 478.721 238.142L467.699 253.007C467.486 253.293 467.216 253.531 466.906 253.706C466.596 253.88 466.252 253.988 465.897 254.022C465.7 254.04 465.501 254.036 465.305 254.008Z" fill="#87CEEB"/>
<path d="M379.766 155.839C379.917 156.652 380.245 157.422 380.727 158.095C381.208 158.768 381.832 159.327 382.553 159.734C383.275 160.14 384.077 160.384 384.903 160.448C385.73 160.511 386.56 160.394 387.336 160.103L400.215 175.556L403.251 165.561L390.555 152.419C389.979 151.151 388.956 150.139 387.681 149.573C386.406 149.007 384.968 148.927 383.638 149.349C382.308 149.77 381.18 150.664 380.466 151.86C379.753 153.056 379.504 154.472 379.766 155.839Z" fill="#FFB8B8"/>
<path d="M389.855 162.244C390.121 161.803 390.516 161.452 390.986 161.24L395.374 159.262C395.85 159.049 396.38 158.987 396.892 159.084C397.404 159.181 397.874 159.433 398.238 159.805L410.91 172.814L441.785 184.768C442.709 185.315 443.516 186.037 444.16 186.895C444.803 187.752 445.271 188.728 445.537 189.766C445.803 190.804 445.861 191.884 445.707 192.945C445.554 194.005 445.193 195.025 444.644 195.946C444.096 196.867 443.371 197.672 442.51 198.313C441.65 198.954 440.671 199.42 439.63 199.684C438.589 199.948 437.507 200.004 436.444 199.85C435.381 199.696 434.359 199.334 433.436 198.786L413.605 192.267C407.586 190.29 402.492 186.198 399.27 180.754L389.846 164.833C389.665 164.527 389.551 164.186 389.51 163.833C389.47 163.48 389.505 163.122 389.612 162.783C389.671 162.594 389.753 162.414 389.855 162.244Z" fill="#87CEEB"/>
<path opacity="0.1" d="M470.734 211.26L470.17 229.256L459.785 247.258L468.457 227.196L470.734 211.26Z" fill="black"/>
<path d="M457.917 165.96C457.047 166.073 456.166 165.867 455.437 165.381C454.708 164.894 454.181 164.161 453.953 163.316C453.734 162.343 453.253 161.449 452.563 160.728C451.873 160.008 450.999 159.488 450.035 159.225C447.495 158.646 444.39 159.839 442.529 157.919C442.131 157.481 441.843 156.955 441.688 156.383C441.534 155.812 441.518 155.212 441.641 154.634C441.984 152.768 443.322 151.359 444.777 150.232C447.841 147.871 451.548 146.488 455.413 146.266C457.414 146.209 459.416 146.308 461.401 146.564C463.479 146.694 465.535 147.069 467.525 147.68C469.793 148.534 471.808 149.944 473.385 151.78C474.962 153.616 476.049 155.819 476.546 158.186C477.001 160.559 476.931 163.003 476.342 165.347C475.752 167.691 474.656 169.878 473.132 171.756C471.306 174.023 468.953 175.811 466.276 176.963C465.638 177.263 464.908 177.3 464.243 177.066C462.576 176.405 462.848 174.344 463.608 172.97C464.422 171.5 465.674 170.076 465.019 168.286C464.691 167.457 464.062 166.781 463.256 166.393C461.599 165.55 459.745 165.75 457.963 165.955L457.917 165.96Z" fill="#2F2E41"/>
<path d="M375.139 173.76H203.759C201.293 173.758 198.928 172.779 197.184 171.04C195.441 169.3 194.46 166.941 194.457 164.481V127.926C194.46 125.466 195.441 123.108 197.184 121.368C198.928 119.628 201.293 118.65 203.759 118.647H375.139C377.606 118.65 379.97 119.628 381.714 121.368C383.457 123.108 384.438 125.466 384.441 127.926V164.481C384.438 166.941 383.457 169.3 381.714 171.04C379.97 172.779 377.606 173.758 375.139 173.76Z" fill="white"/>
<path d="M375.139 174.042H203.759C201.218 174.039 198.782 173.031 196.985 171.238C195.188 169.446 194.178 167.016 194.175 164.481V127.926C194.178 125.392 195.188 122.962 196.985 121.169C198.782 119.377 201.218 118.369 203.759 118.366H375.139C377.68 118.369 380.116 119.377 381.913 121.169C383.71 122.962 384.72 125.392 384.723 127.926V164.481C384.72 167.016 383.71 169.446 381.913 171.238C380.116 173.031 377.68 174.039 375.139 174.042ZM203.759 119.491C201.517 119.493 199.367 120.383 197.782 121.964C196.197 123.546 195.305 125.69 195.302 127.926V164.481C195.305 166.718 196.197 168.862 197.782 170.443C199.367 172.025 201.517 172.914 203.759 172.917H375.139C377.381 172.914 379.531 172.025 381.116 170.443C382.701 168.862 383.593 166.718 383.596 164.481V127.926C383.593 125.69 382.701 123.546 381.116 121.964C379.531 120.383 377.381 119.493 375.139 119.491H203.759Z" fill="#3F3D56"/>
<path d="M354.28 164.762H224.617C222.151 164.76 219.787 163.781 218.043 162.042C216.299 160.302 215.318 157.943 215.316 155.483V136.362C215.318 133.902 216.299 131.543 218.043 129.804C219.787 128.064 222.151 127.086 224.617 127.083H354.28C356.747 127.086 359.111 128.064 360.855 129.804C362.599 131.543 363.58 133.902 363.582 136.362V155.483C363.58 157.943 362.599 160.302 360.855 162.042C359.111 163.781 356.747 164.76 354.28 164.762Z" fill="#F2F2F2"/>
<path d="M252.52 154.456C258.664 154.456 263.645 149.488 263.645 143.359C263.645 137.231 258.664 132.262 252.52 132.262C246.377 132.262 241.396 137.231 241.396 143.359C241.396 149.488 246.377 154.456 252.52 154.456Z" fill="#FF6584"/>
<path d="M346.223 163.643L330.521 150.506L315.09 137.595C314.683 137.255 314.168 137.068 313.637 137.069C313.105 137.07 312.591 137.259 312.185 137.601L296.804 150.57L293.047 153.738L287.383 148.999L270.167 134.596C269.76 134.255 269.245 134.069 268.714 134.07C268.182 134.071 267.668 134.259 267.262 134.602L250.103 149.071L232.673 163.768C232.585 163.842 232.522 163.942 232.492 164.053C232.463 164.165 232.468 164.283 232.508 164.391C232.548 164.499 232.62 164.593 232.715 164.659C232.81 164.725 232.923 164.76 233.038 164.76L268.773 164.691L280.084 164.669L279.973 164.762L313.69 164.698L345.862 164.636C345.977 164.636 346.09 164.6 346.185 164.534C346.279 164.467 346.351 164.374 346.391 164.265C346.43 164.157 346.435 164.039 346.405 163.928C346.375 163.816 346.311 163.717 346.223 163.643Z" fill="#3F3D56"/>
<path d="M493.436 372H385.196C385.046 372 384.903 371.941 384.797 371.835C384.691 371.73 384.632 371.587 384.632 371.438C384.632 371.288 384.691 371.145 384.797 371.04C384.903 370.934 385.046 370.875 385.196 370.875H493.436C493.586 370.875 493.729 370.934 493.835 371.04C493.941 371.145 494 371.288 494 371.438C494 371.587 493.941 371.73 493.835 371.835C493.729 371.941 493.586 372 493.436 372Z" fill="#CCCCCC"/>
<path d="M340.538 74.185C340.088 73.4551 339.493 72.8244 338.79 72.3313C338.088 71.8381 337.292 71.493 336.451 71.3169C336.143 71.2522 335.83 71.2128 335.515 71.1988L292.563 32.8893C291.719 32.0243 290.593 31.4878 289.389 31.3765C289.151 31.3493 288.912 31.3418 288.673 31.354C287.682 31.399 286.725 31.731 285.92 32.3095C285.116 32.888 284.497 33.6879 284.141 34.6114C283.784 35.535 283.705 36.5421 283.913 37.5097C284.122 38.4773 284.608 39.3634 285.313 40.0597L301.757 54.3611L328.761 77.8405C328.783 78.2827 328.849 78.7216 328.958 79.1508C329.282 80.3942 329.976 81.5102 330.95 82.3509C331.923 83.1915 333.13 83.7171 334.41 83.858C335.577 83.994 336.759 83.7991 337.821 83.2956C338.662 82.903 339.408 82.3331 340.008 81.6253C340.07 81.5522 340.126 81.4847 340.183 81.406C340.971 80.3812 341.427 79.141 341.491 77.8508C341.554 76.5606 341.222 75.2818 340.538 74.185H340.538Z" fill="#FFB8B8"/>
<path d="M267.07 111.105L266.67 94.875L266.331 81.406L266.1 71.9805L265.643 53.6075C265.553 52.6238 265.178 51.6876 264.563 50.9132C263.948 50.1388 263.121 49.5598 262.181 49.2467C261.242 48.9336 260.232 48.9 259.274 49.1501C258.316 49.4002 257.452 49.9231 256.787 50.655C256.63 50.8222 256.489 51.0029 256.364 51.1949C255.67 52.1865 255.358 53.3945 255.484 54.5973L256.488 81.406L256.99 94.875L257.632 112.056C257.447 112.308 257.279 112.573 257.131 112.849C256.73 113.607 256.488 114.439 256.419 115.293C256.35 116.148 256.456 117.008 256.731 117.82C257.017 118.672 257.481 119.454 258.092 120.114C258.704 120.774 259.448 121.298 260.277 121.65C261.106 122.002 262 122.175 262.901 122.158C263.801 122.141 264.688 121.933 265.502 121.549C266.448 121.103 267.27 120.431 267.893 119.593C268.517 118.755 268.925 117.777 269.08 116.744C269.235 115.712 269.132 114.658 268.782 113.674C268.431 112.691 267.843 111.808 267.07 111.105H267.07Z" fill="#FFB8B8"/>
<path d="M305.743 65.1307L301.757 54.3611L295.308 36.916C294.843 35.6467 294.097 34.4983 293.126 33.5558C292.155 32.6134 290.983 31.9012 289.699 31.4721C289.597 31.4384 289.49 31.4047 289.389 31.3765C288.144 30.9997 286.833 30.8961 285.544 31.0728C284.256 31.2494 283.021 31.7022 281.925 32.4L260.203 46.1447C258.214 47.4005 256.792 49.3786 256.238 51.6611C255.683 53.9435 256.04 56.3515 257.232 58.3765C259.949 63.0621 262.909 67.603 266.1 71.9805C268.631 75.4166 273.344 75.7822 274.162 81.406H290.178L306.392 66.8853L305.743 65.1307Z" fill="#CCCCCC"/>
<path d="M57.0318 196.751C64.2463 196.751 70.0948 190.917 70.0948 183.72C70.0948 176.523 64.2463 170.689 57.0318 170.689C49.8172 170.689 43.9687 176.523 43.9687 183.72C43.9687 190.917 49.8172 196.751 57.0318 196.751Z" fill="#A0616A"/>
<path d="M89.1017 174.75C89.2305 174.852 89.3553 174.961 89.4761 175.075C90.0762 175.639 90.55 176.323 90.8667 177.082C91.1833 177.842 91.3354 178.659 91.3132 179.481C91.291 180.304 91.095 181.112 90.7378 181.853C90.3807 182.594 89.8706 183.252 89.2409 183.783C89.0942 183.906 88.941 184.021 88.7821 184.128L89.6662 213.903C89.6914 214.878 89.4009 215.835 88.8377 216.631C88.2746 217.428 87.4689 218.023 86.5402 218.327L86.4864 218.339L62.2514 220.913C61.5925 220.983 60.9263 220.922 60.2912 220.734C59.6561 220.545 59.0647 220.233 58.5511 219.816C58.0375 219.398 57.612 218.883 57.2991 218.3C56.9861 217.718 56.792 217.079 56.7279 216.421C56.6638 215.763 56.7309 215.099 56.9255 214.468C57.1201 213.836 57.4382 213.249 57.8615 212.74C58.2848 212.231 58.8048 211.812 59.3917 211.505C59.9785 211.198 60.6205 211.01 61.2805 210.952L78.5563 209.434L81.544 183.648C81.3485 183.476 81.1655 183.29 80.9963 183.092C80.0595 181.986 79.5682 180.572 79.6178 179.125C79.6673 177.678 80.2541 176.301 81.2643 175.261C82.2745 174.222 83.636 173.593 85.0843 173.499C86.5327 173.405 87.9645 173.85 89.1018 174.75H89.1017Z" fill="#A0616A"/>
<path d="M78.5464 365.083H85.0674L88.1691 339.994H78.5453L78.5464 365.083Z" fill="#A0616A"/>
<path d="M76.8835 362.96L89.7246 362.959H89.7251C90.7998 362.959 91.864 363.17 92.8568 363.581C93.8497 363.991 94.7518 364.592 95.5118 365.35C96.2717 366.108 96.8745 367.008 97.2857 367.999C97.697 368.989 97.9086 370.051 97.9086 371.123V371.388L76.8839 371.389L76.8835 362.96Z" fill="#2F2E41"/>
<path d="M13.7364 356.09L19.339 359.417L34.872 339.443L26.6029 334.532L13.7364 356.09Z" fill="#A0616A"/>
<path d="M13.3964 353.416L24.43 359.97L24.4304 359.97C25.3538 360.518 26.1598 361.243 26.8025 362.102C27.4452 362.961 27.912 363.939 28.1761 364.978C28.4402 366.017 28.4966 367.098 28.342 368.159C28.1874 369.22 27.8248 370.24 27.275 371.161L27.1389 371.389L9.07379 360.659L13.3964 353.416Z" fill="#2F2E41"/>
<path d="M86.6058 356.222H79.3042C78.713 356.223 78.1424 356.005 77.7028 355.611C77.2633 355.216 76.9859 354.673 76.9244 354.087L69.5634 285.061C69.5448 284.888 69.4694 284.725 69.3489 284.598C69.2283 284.471 69.0693 284.387 68.8964 284.36C68.7234 284.332 68.5462 284.362 68.3919 284.445C68.2376 284.527 68.115 284.659 68.0428 284.818L54.7634 314.151L31.2529 352.394C30.9487 352.885 30.4775 353.249 29.9258 353.421C29.3741 353.593 28.7788 353.561 28.2488 353.331L18.8565 349.209C18.546 349.072 18.268 348.872 18.0411 348.62C17.8142 348.368 17.6435 348.071 17.5404 347.749C17.4373 347.427 17.404 347.086 17.4429 346.75C17.4817 346.413 17.5918 346.089 17.7658 345.799L39.3784 309.698L46.0068 279.282C43.9221 266.091 52.8592 246.48 52.9498 246.283L52.9941 246.187L77.6118 236.589L77.7352 236.74C87.4437 268.522 93.3596 302.725 88.9915 354.034C88.9376 354.629 88.6634 355.183 88.2223 355.588C87.7812 355.992 87.2049 356.218 86.6058 356.222Z" fill="#2F2E41"/>
<path d="M52.0023 249.401L51.8877 249.161C51.8329 249.046 46.359 237.529 42.1393 225.219C41.3283 222.839 41.0217 220.317 41.239 217.812C41.4562 215.307 42.1925 212.875 43.4013 210.669C44.6257 208.44 46.3009 206.489 48.3206 204.94C50.3403 203.39 52.6606 202.276 55.1344 201.668C59.4291 200.641 63.9506 201.188 67.8753 203.208C71.7999 205.228 74.8665 208.587 76.5163 212.674C79.8634 221.024 78.7967 229.936 77.7928 236.945L77.7728 237.085L77.6448 237.146L52.0023 249.401Z" fill="#3F3D56"/>
<path d="M72.8704 176.359H52.1278V167.339C56.6805 165.535 61.1357 164 63.8287 167.339C66.2267 167.339 68.5265 168.29 70.2221 169.981C71.9178 171.673 72.8704 173.967 72.8704 176.359V176.359Z" fill="#2F2E41"/>
<path d="M50.9794 165.748C38.579 165.748 35.1082 181.253 35.1082 190.001C35.1082 194.879 37.3198 196.624 40.795 197.214L42.0224 190.684L44.897 197.495C45.8732 197.5 46.8987 197.481 47.9619 197.461L48.9366 195.459L51.11 197.426C59.8148 197.438 66.8503 198.704 66.8503 190.001C66.8503 181.253 63.8064 165.748 50.9794 165.748Z" fill="#2F2E41"/>
<path d="M108.804 372H0.563752C0.414236 372 0.270843 371.941 0.165119 371.835C0.0593947 371.73 0 371.587 0 371.438C0 371.288 0.0593947 371.145 0.165119 371.04C0.270843 370.934 0.414236 370.875 0.563752 370.875H108.804C108.954 370.875 109.097 370.934 109.203 371.04C109.309 371.145 109.368 371.288 109.368 371.438C109.368 371.587 109.309 371.73 109.203 371.835C109.097 371.941 108.954 372 108.804 372Z" fill="#CCCCCC"/>
<path d="M110.839 186.977H86.5981C85.1782 186.975 83.8169 186.412 82.8129 185.41C81.8088 184.408 81.244 183.05 81.2424 181.634V157.451C81.244 156.035 81.8088 154.677 82.8129 153.675C83.8169 152.674 85.1782 152.11 86.5981 152.109H110.839C112.259 152.11 113.621 152.674 114.625 153.675C115.629 154.677 116.193 156.035 116.195 157.451V181.634C116.193 183.05 115.629 184.408 114.625 185.41C113.621 186.412 112.259 186.975 110.839 186.977Z" fill="white"/>
<path d="M110.839 186.977H86.5981C85.1782 186.975 83.8169 186.412 82.8129 185.41C81.8088 184.408 81.244 183.05 81.2424 181.634V157.451C81.244 156.035 81.8088 154.677 82.8129 153.675C83.8169 152.674 85.1782 152.11 86.5981 152.109H110.839C112.259 152.11 113.621 152.674 114.625 153.675C115.629 154.677 116.193 156.035 116.195 157.451V181.634C116.193 183.05 115.629 184.408 114.625 185.41C113.621 186.412 112.259 186.975 110.839 186.977ZM86.5981 153.234C85.4771 153.235 84.4024 153.68 83.6097 154.47C82.8171 155.261 82.3712 156.333 82.3699 157.451V181.634C82.3712 182.752 82.8171 183.824 83.6097 184.615C84.4024 185.406 85.4771 185.851 86.5981 185.852H110.839C111.96 185.851 113.035 185.406 113.828 184.615C114.62 183.824 115.066 182.752 115.068 181.634V157.451C115.066 156.333 114.62 155.261 113.828 154.47C113.035 153.68 111.96 153.235 110.839 153.234H86.5981Z" fill="#3F3D56"/>
<path d="M106.611 177.135H90.8262C90.3778 177.134 89.9479 176.956 89.6309 176.64C89.3138 176.324 89.1355 175.895 89.135 175.448V163.638C89.1355 163.19 89.3138 162.762 89.6309 162.445C89.9479 162.129 90.3778 161.951 90.8262 161.951H95.2699C95.5589 161.949 95.8434 162.023 96.0957 162.163C96.348 162.304 96.5597 162.507 96.7104 162.753L97.9497 164.762H106.611C107.06 164.763 107.49 164.941 107.807 165.257C108.124 165.573 108.302 166.002 108.303 166.45V175.448C108.302 175.895 108.124 176.324 107.807 176.64C107.49 176.956 107.06 177.134 106.611 177.135Z" fill="#065A7C"/>
<path d="M106.098 183.101C106.177 183.245 106.25 183.393 106.316 183.546C106.65 184.298 106.821 185.112 106.817 185.934C106.814 186.756 106.636 187.569 106.296 188.318C105.955 189.067 105.46 189.736 104.843 190.281C104.225 190.826 103.499 191.235 102.713 191.48C102.529 191.537 102.343 191.583 102.155 191.62L91.3881 219.405C91.0322 220.313 90.3922 221.082 89.5632 221.599C88.7342 222.115 87.7603 222.352 86.7861 222.272L86.732 222.262L63.3945 215.254C62.76 215.063 62.1697 214.749 61.6575 214.329C61.1454 213.91 60.7216 213.393 60.4107 212.81C60.0998 212.226 59.9079 211.587 59.8461 210.928C59.7843 210.27 59.8538 209.606 60.0506 208.975C60.2475 208.344 60.5677 207.758 60.9928 207.251C61.418 206.744 61.9396 206.326 62.5276 206.021C63.1156 205.716 63.7583 205.531 64.4186 205.475C65.0789 205.419 65.7437 205.495 66.3746 205.697L82.8871 210.985L95.6709 188.377C95.5579 188.142 95.4616 187.9 95.3827 187.652C94.9496 186.27 95.0468 184.777 95.6554 183.462C96.2639 182.148 97.3404 181.106 98.6758 180.539C100.011 179.972 101.51 179.92 102.882 180.393C104.253 180.867 105.4 181.832 106.098 183.101H106.098Z" fill="#A0616A"/>
</g>
<defs>
<clipPath id="clip0">
<rect width="494" height="372" fill="white"/>
</clipPath>
</defs>
</svg>
