<svg width="285" height="112" viewBox="0 0 285 112" fill="none" xmlns="http://www.w3.org/2000/svg">
<mask id="mask0" mask-type="alpha" maskUnits="userSpaceOnUse" x="0" y="0" width="285" height="112">
<rect width="285" height="112" fill="#C4C4C4"/>
</mask>
<g mask="url(#mask0)">
<mask id="mask1" mask-type="alpha" maskUnits="userSpaceOnUse" x="-1" y="0" width="113" height="112">
<ellipse cx="55.4637" cy="56.2339" rx="55.8232" ry="55.6678" fill="#87CEEB"/>
</mask>
<g mask="url(#mask1)">
<path d="M111.287 56.2339C111.287 86.9784 86.294 111.902 55.4637 111.902C24.6334 111.902 -0.359497 86.9784 -0.359497 56.2339C-0.359497 25.4894 24.6334 0.566101 55.4637 0.566101C86.294 0.566101 111.287 25.4894 111.287 56.2339Z" fill="#87CEEB"/>
<path d="M155.191 128.477L130.457 36.428C130.457 36.428 149.512 -2.99006 117.532 23.0512C85.5515 49.0924 88.3584 64.0002 41.0506 56.6407C-6.25722 49.2812 -24.9911 78.153 -56.0251 73.4353C-87.059 68.7177 -75.3567 91.4221 -75.3567 91.4221L-50.6235 183.471L155.191 128.477Z" fill="#0092C4" fill-opacity="0.3"/>
<path d="M213.268 145.616L188.535 53.567C188.535 53.567 202.41 24.7165 165.496 45.474C128.582 66.2316 145.627 69.2508 94.9129 65.4767C44.199 61.7026 26.1329 83.9731 -4.90102 79.2555C-35.9349 74.5379 -17.2794 108.561 -17.2794 108.561L7.45384 200.61L213.268 145.616Z" fill="#0092C4" fill-opacity="0.3"/>
<path d="M177.792 165.811L153.059 73.7622C153.059 73.7622 161.674 33.1745 129.694 59.2157C97.7141 85.2569 112.99 91.7105 65.6822 84.351C18.3744 76.9915 -2.38919 112.996 -33.4231 108.279C-64.457 103.561 -52.7547 128.756 -52.7547 128.756L-28.0215 220.805L177.792 165.811Z" fill="#0092C4" fill-opacity="0.3"/>
<path d="M177.792 176.756L153.059 84.7071C153.059 84.7071 161.674 44.1194 129.694 70.1606C97.7141 96.2019 110.96 109.789 63.6525 102.429C16.3447 95.0696 -2.38919 123.941 -33.4231 119.224C-64.457 114.506 -52.7547 139.701 -52.7547 139.701L-28.0215 231.75L177.792 176.756Z" fill="#269EC9"/>
<path d="M99.1761 34.1556C99.1761 44.369 90.8734 52.6486 80.6315 52.6486C70.3895 52.6486 62.0868 44.369 62.0868 34.1556C62.0868 23.9422 70.3895 15.6626 80.6315 15.6626C90.8734 15.6626 99.1761 23.9422 99.1761 34.1556Z" fill="white"/>
<path d="M65.493 56.4227C65.493 61.4252 61.4263 65.4805 56.4099 65.4805C51.3934 65.4805 47.3268 61.4252 47.3268 56.4227C47.3268 51.4202 51.3934 47.3649 56.4099 47.3649C61.4263 47.3649 65.493 51.4202 65.493 56.4227Z" fill="white"/>
</g>
<path d="M130.929 49.7231C130.929 50.6933 131.043 51.5684 131.272 52.3484C131.52 53.1284 131.863 53.8037 132.302 54.3744C132.76 54.9261 133.313 55.3542 133.962 55.6585C134.61 55.9629 135.354 56.1151 136.194 56.1151C137.014 56.1151 137.749 55.9629 138.397 55.6585C139.065 55.3542 139.618 54.9261 140.057 54.3744C140.515 53.8037 140.858 53.1284 141.087 52.3484C141.335 51.5684 141.459 50.6933 141.459 49.7231C141.459 48.7529 141.335 47.8778 141.087 47.0979C140.858 46.2989 140.515 45.6235 140.057 45.0718C139.618 44.5011 139.065 44.0636 138.397 43.7592C137.749 43.4548 137.014 43.3026 136.194 43.3026C135.354 43.3026 134.61 43.4643 133.962 43.7877C133.313 44.0921 132.76 44.5297 132.302 45.1004C131.863 45.6521 131.52 46.3274 131.272 47.1264C131.043 47.9064 130.929 48.7719 130.929 49.7231ZM146.066 49.7231C146.066 51.4162 145.809 52.9096 145.293 54.2032C144.797 55.4778 144.111 56.5527 143.233 57.4277C142.356 58.2838 141.306 58.9306 140.085 59.3682C138.884 59.8057 137.586 60.0245 136.194 60.0245C134.839 60.0245 133.561 59.8057 132.359 59.3682C131.158 58.9306 130.108 58.2838 129.212 57.4277C128.315 56.5527 127.609 55.4778 127.094 54.2032C126.579 52.9096 126.322 51.4162 126.322 49.7231C126.322 48.03 126.589 46.5462 127.123 45.2716C127.657 43.978 128.372 42.8936 129.269 42.0185C130.185 41.1434 131.234 40.4871 132.417 40.0496C133.618 39.612 134.877 39.3932 136.194 39.3932C137.548 39.3932 138.826 39.612 140.028 40.0496C141.23 40.4871 142.279 41.1434 143.176 42.0185C144.073 42.8936 144.778 43.978 145.293 45.2716C145.809 46.5462 146.066 48.03 146.066 49.7231Z" fill="#065A7C"/>
<path d="M154.955 59.625C154.173 57.9699 153.401 56.2483 152.638 54.46C151.874 52.6718 151.15 50.9026 150.463 49.1524C149.776 47.4022 149.137 45.7282 148.546 44.1302C147.973 42.5322 147.477 41.1054 147.058 39.8498H151.979C152.361 40.9912 152.771 42.2278 153.21 43.5594C153.668 44.8721 154.126 46.1847 154.583 47.4974C155.06 48.81 155.518 50.0656 155.957 51.2641C156.396 52.4626 156.806 53.4993 157.187 54.3744C157.55 53.4993 157.95 52.4626 158.389 51.2641C158.847 50.0656 159.305 48.81 159.763 47.4974C160.24 46.1847 160.697 44.8721 161.136 43.5594C161.594 42.2278 162.014 40.9912 162.395 39.8498H167.145C166.707 41.1054 166.201 42.5322 165.629 44.1302C165.057 45.7282 164.427 47.4022 163.74 49.1524C163.053 50.9026 162.329 52.6718 161.565 54.46C160.802 56.2483 160.03 57.9699 159.248 59.625H154.955Z" fill="#065A7C"/>
<path d="M169.712 59.625V39.8498H183.104V43.588H174.176V47.4688H182.102V51.1214H174.176V55.8868H183.762V59.625H169.712Z" fill="#065A7C"/>
<path d="M192.874 39.6215C195.85 39.6215 198.13 40.1542 199.713 41.2195C201.297 42.2658 202.088 43.9019 202.088 46.1277C202.088 47.5164 201.764 48.6483 201.115 49.5234C200.486 50.3795 199.57 51.0548 198.368 51.5494C198.769 52.044 199.189 52.6147 199.627 53.2615C200.066 53.8893 200.495 54.5552 200.915 55.259C201.354 55.9439 201.773 56.6668 202.174 57.4277C202.575 58.1697 202.947 58.9021 203.29 59.625H198.282C197.92 58.9782 197.548 58.3219 197.166 57.656C196.804 56.9902 196.422 56.3434 196.022 55.7156C195.64 55.0878 195.259 54.4981 194.877 53.9464C194.496 53.3757 194.114 52.8621 193.733 52.4055H191.529V59.625H187.065V40.1352C188.038 39.9449 189.04 39.8118 190.07 39.7357C191.119 39.6596 192.054 39.6215 192.874 39.6215ZM193.132 43.4168C192.807 43.4168 192.512 43.4263 192.245 43.4453C191.997 43.4643 191.758 43.4834 191.529 43.5024V48.8671H192.788C194.467 48.8671 195.669 48.6578 196.394 48.2393C197.119 47.8208 197.481 47.1074 197.481 46.0991C197.481 45.1289 197.109 44.4441 196.365 44.0446C195.64 43.626 194.562 43.4168 193.132 43.4168Z" fill="#065A7C"/>
<path d="M206.151 59.625V39.8498H219.429V43.588H210.615V47.7256H218.456V51.4638H210.615V59.625H206.151Z" fill="#065A7C"/>
<path d="M235.832 55.8012V59.625H222.583V39.8498H227.047V55.8012H235.832Z" fill="#065A7C"/>
<path d="M241.897 49.7231C241.897 50.6933 242.011 51.5684 242.24 52.3484C242.488 53.1284 242.831 53.8037 243.27 54.3744C243.728 54.9261 244.281 55.3542 244.93 55.6585C245.578 55.9629 246.322 56.1151 247.162 56.1151C247.982 56.1151 248.717 55.9629 249.365 55.6585C250.033 55.3542 250.586 54.9261 251.025 54.3744C251.483 53.8037 251.826 53.1284 252.055 52.3484C252.303 51.5684 252.427 50.6933 252.427 49.7231C252.427 48.7529 252.303 47.8778 252.055 47.0979C251.826 46.2989 251.483 45.6235 251.025 45.0718C250.586 44.5011 250.033 44.0636 249.365 43.7592C248.717 43.4548 247.982 43.3026 247.162 43.3026C246.322 43.3026 245.578 43.4643 244.93 43.7877C244.281 44.0921 243.728 44.5297 243.27 45.1004C242.831 45.6521 242.488 46.3274 242.24 47.1264C242.011 47.9064 241.897 48.7719 241.897 49.7231ZM257.034 49.7231C257.034 51.4162 256.776 52.9096 256.261 54.2032C255.765 55.4778 255.079 56.5527 254.201 57.4277C253.324 58.2838 252.274 58.9306 251.053 59.3682C249.852 59.8057 248.554 60.0245 247.162 60.0245C245.807 60.0245 244.529 59.8057 243.327 59.3682C242.125 58.9306 241.076 58.2838 240.18 57.4277C239.283 56.5527 238.577 55.4778 238.062 54.2032C237.547 52.9096 237.29 51.4162 237.29 49.7231C237.29 48.03 237.557 46.5462 238.091 45.2716C238.625 43.978 239.34 42.8936 240.237 42.0185C241.153 41.1434 242.202 40.4871 243.385 40.0496C244.586 39.612 245.845 39.3932 247.162 39.3932C248.516 39.3932 249.794 39.612 250.996 40.0496C252.198 40.4871 253.247 41.1434 254.144 42.0185C255.041 42.8936 255.746 43.978 256.261 45.2716C256.776 46.5462 257.034 48.03 257.034 49.7231Z" fill="#065A7C"/>
<path d="M273.782 41.9615C274.011 42.7414 274.259 43.626 274.526 44.6153C274.812 45.5855 275.108 46.5937 275.413 47.64C275.737 48.6863 276.061 49.7326 276.386 50.779C276.71 51.8253 277.025 52.7955 277.33 53.6896C277.578 52.7194 277.826 51.6636 278.074 50.5221C278.341 49.3807 278.589 48.2012 278.818 46.9837C279.047 45.7662 279.266 44.5582 279.476 43.3597C279.705 42.1422 279.915 40.9722 280.106 39.8498H284.741C284.074 43.1599 283.301 46.5176 282.424 49.9229C281.565 53.3281 280.63 56.5622 279.619 59.625H275.527C274.86 57.7987 274.211 55.8868 273.581 53.8893C272.952 51.8728 272.332 49.8563 271.721 47.8398C271.111 49.8563 270.501 51.8728 269.89 53.8893C269.28 55.8868 268.641 57.7987 267.973 59.625H263.881C262.87 56.5622 261.926 53.3281 261.048 49.9229C260.19 46.5176 259.426 43.1599 258.759 39.8498H263.595C263.786 40.9722 263.995 42.1422 264.224 43.3597C264.453 44.5582 264.692 45.7662 264.94 46.9837C265.188 48.2012 265.436 49.3807 265.684 50.5221C265.951 51.6636 266.218 52.7194 266.485 53.6896C266.828 52.7574 267.162 51.7682 267.486 50.7219C267.811 49.6756 268.126 48.6293 268.431 47.583C268.736 46.5367 269.013 45.5284 269.261 44.5582C269.528 43.588 269.766 42.7224 269.976 41.9615H273.782Z" fill="#065A7C"/>
<path d="M129.672 72.8688C129.992 72.8688 130.254 72.8446 130.457 72.7963C130.67 72.7383 130.84 72.6658 130.966 72.5787C131.092 72.4821 131.179 72.3709 131.228 72.2452C131.276 72.1195 131.301 71.9793 131.301 71.8247C131.301 71.496 131.145 71.2253 130.835 71.0126C130.525 70.7902 129.992 70.5533 129.236 70.302C128.906 70.186 128.576 70.0554 128.247 69.9104C127.917 69.7557 127.621 69.5672 127.36 69.3449C127.098 69.1128 126.885 68.8373 126.72 68.5183C126.555 68.1896 126.473 67.7932 126.473 67.3291C126.473 66.8651 126.56 66.4494 126.734 66.082C126.909 65.7049 127.156 65.3859 127.476 65.1249C127.796 64.8638 128.184 64.6657 128.639 64.5303C129.095 64.3853 129.609 64.3128 130.181 64.3128C130.859 64.3128 131.446 64.3853 131.94 64.5303C132.435 64.6753 132.842 64.8348 133.162 65.0089L132.508 66.7926C132.226 66.6475 131.911 66.5219 131.562 66.4155C131.223 66.2995 130.811 66.2415 130.326 66.2415C129.783 66.2415 129.391 66.3188 129.148 66.4735C128.916 66.6185 128.799 66.8457 128.799 67.1551C128.799 67.3388 128.843 67.4935 128.93 67.6192C129.017 67.7448 129.139 67.8609 129.294 67.9672C129.459 68.0639 129.643 68.1557 129.846 68.2427C130.06 68.3201 130.292 68.4023 130.544 68.4893C131.068 68.6826 131.524 68.876 131.911 69.0693C132.299 69.253 132.619 69.4705 132.871 69.7219C133.133 69.9733 133.327 70.2681 133.453 70.6065C133.579 70.9449 133.642 71.3558 133.642 71.8392C133.642 72.7769 133.312 73.5069 132.653 74.0289C131.994 74.5413 131 74.7975 129.672 74.7975C129.226 74.7975 128.824 74.7685 128.465 74.7105C128.106 74.6622 127.786 74.5993 127.505 74.522C127.234 74.4446 126.996 74.3625 126.793 74.2754C126.599 74.1884 126.434 74.1063 126.298 74.0289L126.938 72.2307C127.238 72.3951 127.607 72.5449 128.043 72.6803C128.489 72.8059 129.032 72.8688 129.672 72.8688Z" fill="#065A7C"/>
<path d="M141.806 66.9666C141.37 68.4361 140.914 69.8138 140.439 71.0996C139.964 72.3854 139.445 73.6325 138.883 74.841C138.679 75.2761 138.476 75.6434 138.272 75.9431C138.069 76.2525 137.846 76.5039 137.603 76.6972C137.361 76.9003 137.085 77.0453 136.774 77.1323C136.474 77.229 136.12 77.2773 135.713 77.2773C135.373 77.2773 135.058 77.2435 134.768 77.1758C134.486 77.1178 134.254 77.0501 134.07 76.9728L134.448 75.2471C134.671 75.3244 134.869 75.3776 135.044 75.4066C135.218 75.4356 135.403 75.4501 135.596 75.4501C135.984 75.4501 136.28 75.3437 136.484 75.131C136.697 74.928 136.876 74.6428 137.022 74.2754C136.527 73.3087 136.033 72.2259 135.538 71.0271C135.044 69.8186 134.579 68.4651 134.142 66.9666H136.44C136.537 67.3436 136.648 67.7545 136.774 68.1992C136.91 68.6343 137.051 69.079 137.196 69.5334C137.342 69.9781 137.487 70.4132 137.632 70.8385C137.787 71.2639 137.933 71.6506 138.069 71.9987C138.195 71.6506 138.326 71.2639 138.461 70.8385C138.597 70.4132 138.728 69.9781 138.854 69.5334C138.99 69.079 139.116 68.6343 139.232 68.1992C139.358 67.7545 139.47 67.3436 139.566 66.9666H141.806Z" fill="#065A7C"/>
<path d="M145.163 73.0428C145.561 73.0428 145.842 73.0041 146.007 72.9268C146.172 72.8494 146.254 72.6996 146.254 72.4772C146.254 72.3032 146.147 72.1534 145.934 72.0277C145.721 71.8923 145.396 71.7425 144.96 71.5781C144.62 71.4524 144.31 71.3219 144.029 71.1866C143.758 71.0512 143.525 70.8917 143.331 70.708C143.137 70.5147 142.987 70.2875 142.88 70.0264C142.774 69.7654 142.72 69.4512 142.72 69.0838C142.72 68.3684 142.987 67.8029 143.52 67.3871C144.053 66.9714 144.785 66.7636 145.716 66.7636C146.181 66.7636 146.627 66.8071 147.054 66.8941C147.48 66.9714 147.82 67.0584 148.072 67.1551L147.694 68.8373C147.442 68.7503 147.165 68.673 146.865 68.6053C146.574 68.5376 146.244 68.5038 145.876 68.5038C145.197 68.5038 144.858 68.6923 144.858 69.0693C144.858 69.1563 144.873 69.2337 144.902 69.3014C144.931 69.369 144.989 69.4367 145.076 69.5044C145.163 69.5624 145.28 69.6301 145.425 69.7074C145.58 69.7751 145.774 69.8524 146.007 69.9394C146.482 70.1135 146.875 70.2875 147.185 70.4615C147.495 70.6259 147.737 70.8095 147.912 71.0126C148.096 71.2059 148.222 71.4234 148.29 71.6651C148.368 71.9068 148.406 72.1872 148.406 72.5062C148.406 73.2603 148.12 73.8307 147.548 74.2174C146.986 74.6042 146.186 74.7975 145.149 74.7975C144.47 74.7975 143.903 74.7395 143.447 74.6235C143.001 74.5075 142.691 74.4108 142.517 74.3335L142.88 72.5787C143.249 72.7238 143.627 72.8398 144.015 72.9268C144.402 73.0041 144.785 73.0428 145.163 73.0428Z" fill="#065A7C"/>
<path d="M149.953 65.0669L152.12 64.7188V66.9666H154.723V68.7648H152.12V71.4476C152.12 71.902 152.197 72.2645 152.352 72.5352C152.517 72.8059 152.842 72.9413 153.327 72.9413C153.559 72.9413 153.797 72.922 154.039 72.8833C154.291 72.8349 154.519 72.7721 154.723 72.6948L155.028 74.377C154.766 74.4833 154.475 74.5751 154.156 74.6525C153.836 74.7298 153.443 74.7685 152.978 74.7685C152.386 74.7685 151.897 74.6912 151.509 74.5365C151.121 74.3721 150.811 74.1498 150.578 73.8694C150.346 73.5794 150.181 73.2313 150.084 72.8253C149.997 72.4192 149.953 71.9697 149.953 71.4766V65.0669Z" fill="#065A7C"/>
<path d="M155.84 70.8385C155.84 70.1618 155.941 69.5721 156.145 69.0693C156.358 68.5569 156.635 68.1316 156.974 67.7932C157.313 67.4548 157.701 67.1986 158.137 67.0246C158.583 66.8506 159.039 66.7636 159.504 66.7636C160.59 66.7636 161.448 67.0971 162.078 67.7642C162.708 68.4216 163.023 69.3932 163.023 70.679C163.023 70.8047 163.019 70.9449 163.009 71.0996C162.999 71.2446 162.99 71.3751 162.98 71.4911H158.065C158.113 71.9358 158.321 72.2887 158.69 72.5497C159.058 72.8108 159.553 72.9413 160.173 72.9413C160.571 72.9413 160.958 72.9075 161.337 72.8398C161.724 72.7624 162.039 72.6706 162.282 72.5642L162.573 74.319C162.456 74.377 162.301 74.435 162.107 74.493C161.913 74.551 161.695 74.5993 161.453 74.638C161.22 74.6863 160.968 74.725 160.697 74.754C160.425 74.783 160.154 74.7975 159.882 74.7975C159.194 74.7975 158.593 74.696 158.079 74.493C157.575 74.2899 157.153 74.0144 156.814 73.6664C156.484 73.3087 156.237 72.8881 156.072 72.4047C155.917 71.9213 155.84 71.3993 155.84 70.8385ZM160.929 70.0119C160.92 69.8283 160.886 69.6494 160.828 69.4754C160.779 69.3014 160.697 69.1467 160.58 69.0113C160.474 68.876 160.333 68.7648 160.159 68.6778C159.994 68.5908 159.785 68.5473 159.533 68.5473C159.291 68.5473 159.083 68.5908 158.908 68.6778C158.734 68.7551 158.588 68.8615 158.472 68.9968C158.355 69.1322 158.263 69.2917 158.195 69.4754C158.137 69.6494 158.094 69.8283 158.065 70.0119H160.929Z" fill="#065A7C"/>
<path d="M168.898 70.5485C168.898 69.8524 168.806 69.3594 168.622 69.0693C168.447 68.7793 168.142 68.6343 167.706 68.6343C167.57 68.6343 167.43 68.644 167.284 68.6633C167.139 68.673 166.998 68.6875 166.862 68.7068V74.5945H164.696V67.2276C164.88 67.1793 165.093 67.1309 165.335 67.0826C165.588 67.0246 165.849 66.9763 166.121 66.9376C166.402 66.8892 166.688 66.8554 166.979 66.8361C167.27 66.8071 167.556 66.7926 167.837 66.7926C168.389 66.7926 168.835 66.8651 169.175 67.0101C169.524 67.1454 169.81 67.3098 170.033 67.5031C170.343 67.2808 170.697 67.1068 171.094 66.9811C171.501 66.8554 171.875 66.7926 172.214 66.7926C172.825 66.7926 173.324 66.8796 173.712 67.0536C174.109 67.2179 174.424 67.4548 174.657 67.7642C174.89 68.0736 175.05 68.4409 175.137 68.8663C175.224 69.2917 175.268 69.7654 175.268 70.2875V74.5945H173.101V70.5485C173.101 69.8524 173.009 69.3594 172.825 69.0693C172.65 68.7793 172.345 68.6343 171.909 68.6343C171.792 68.6343 171.627 68.6633 171.414 68.7213C171.21 68.7793 171.041 68.8518 170.905 68.9388C170.973 69.1612 171.017 69.398 171.036 69.6494C171.055 69.8911 171.065 70.1521 171.065 70.4325V74.5945H168.898V70.5485Z" fill="#065A7C"/>
<path d="M179.431 73.0428C179.829 73.0428 180.11 73.0041 180.275 72.9268C180.439 72.8494 180.522 72.6996 180.522 72.4772C180.522 72.3032 180.415 72.1534 180.202 72.0277C179.989 71.8923 179.664 71.7425 179.228 71.5781C178.888 71.4524 178.578 71.3219 178.297 71.1866C178.025 71.0512 177.793 70.8917 177.599 70.708C177.405 70.5147 177.255 70.2875 177.148 70.0264C177.041 69.7654 176.988 69.4512 176.988 69.0838C176.988 68.3684 177.255 67.8029 177.788 67.3871C178.321 66.9714 179.053 66.7636 179.984 66.7636C180.449 66.7636 180.895 66.8071 181.322 66.8941C181.748 66.9714 182.088 67.0584 182.34 67.1551L181.962 68.8373C181.71 68.7503 181.433 68.673 181.133 68.6053C180.842 68.5376 180.512 68.5038 180.144 68.5038C179.465 68.5038 179.126 68.6923 179.126 69.0693C179.126 69.1563 179.14 69.2337 179.169 69.3014C179.199 69.369 179.257 69.4367 179.344 69.5044C179.431 69.5624 179.548 69.6301 179.693 69.7074C179.848 69.7751 180.042 69.8524 180.275 69.9394C180.75 70.1135 181.142 70.2875 181.453 70.4615C181.763 70.6259 182.005 70.8095 182.18 71.0126C182.364 71.2059 182.49 71.4234 182.558 71.6651C182.635 71.9068 182.674 72.1872 182.674 72.5062C182.674 73.2603 182.388 73.8307 181.816 74.2174C181.254 74.6042 180.454 74.7975 179.417 74.7975C178.738 74.7975 178.171 74.7395 177.715 74.6235C177.269 74.5075 176.959 74.4108 176.785 74.3335L177.148 72.5787C177.517 72.7238 177.895 72.8398 178.282 72.9268C178.67 73.0041 179.053 73.0428 179.431 73.0428Z" fill="#065A7C"/>
</g>
</svg>
