<svg width="41" height="40" viewBox="0 0 41 40" fill="none" xmlns="http://www.w3.org/2000/svg">
<g clip-path="url(#clip0)">
<path d="M20.2587 40C31.3044 40 40.2587 31.0457 40.2587 20C40.2587 8.9543 31.3044 0 20.2587 0C9.21297 0 0.258667 8.9543 0.258667 20C0.258667 31.0457 9.21297 40 20.2587 40Z" fill="#87CEEB"/>
<path d="M32.7441 11.5208H7.72413L16.7881 20.9588L19.4037 23.6072C17.9806 23.2819 17.8926 23.0791 17.2619 22.5643C16.9312 22.2942 16.2921 21.5602 15.3215 20.569C12.2917 17.4752 7.15062 12.2253 7.15062 12.2253V27.7583L7.79632 28.404L7.72406 28.4792L19.218 39.9732C19.5627 39.9909 19.9096 40 20.2587 40C31.3044 40 40.2587 31.0457 40.2587 20C40.2587 19.6683 40.2501 19.3386 40.2342 19.0109L32.7441 11.5208Z" fill="#269EC9"/>
<path d="M7.15062 12.2253V27.7583L14.7255 19.9604L7.15062 12.2253Z" fill="white"/>
<path d="M33.3667 12.2253V27.7583L25.8295 19.9918L33.3667 12.2253Z" fill="white"/>
<path d="M7.72412 11.5208H32.744L22.9108 21.7597C22.211 22.4884 21.2444 22.9002 20.2341 22.9002C19.2239 22.9002 18.2572 22.4884 17.5574 21.7597L7.72412 11.5208Z" fill="white"/>
<path d="M23.4781 22.3044C22.6344 23.1828 21.4521 23.6867 20.2341 23.6867C19.0162 23.6867 17.8338 23.183 16.9902 22.3045L15.3223 20.5677L7.72412 28.4792H32.744L25.1459 20.5677L23.4781 22.3044Z" fill="white"/>
</g>
<defs>
<clipPath id="clip0">
<rect width="40" height="40" fill="white" transform="translate(0.258667)"/>
</clipPath>
</defs>
</svg>
