<svg width="1099" height="502" viewBox="0 0 1099 502" fill="none" xmlns="http://www.w3.org/2000/svg">
<g opacity="0.8">
<path d="M388.187 241.84C316.187 94.6397 7.18695 42.173 -138.313 34.3397H-184.813V669.34H1097.19C996.02 591.34 779.487 446.54 722.687 491.34C651.687 547.34 478.187 425.84 388.187 241.84Z" fill="#87CEEB"/>
<path d="M389.219 208.251C317.219 61.0514 8.21924 8.58474 -137.281 0.751404H-183.781V635.751H1098.22C997.053 557.751 780.519 412.951 723.719 457.751C652.719 513.751 479.219 392.251 389.219 208.251Z" fill="#0092C4" fill-opacity="0.3"/>
<path d="M369.303 289.766C297.303 142.566 -11.6965 90.0998 -157.197 82.2664H-203.697V717.266H1078.3C977.137 639.266 760.603 494.466 703.803 539.266C632.803 595.266 459.303 473.766 369.303 289.766Z" fill="#0092C4" fill-opacity="0.3"/>
<path d="M249 272.571C177 125.371 -132 72.9042 -277.5 65.0709H-324V700.071H958C856.833 622.071 640.3 477.271 583.5 522.071C512.5 578.071 339 456.571 249 272.571Z" fill="#0092C4" fill-opacity="0.3"/>
<path d="M249 436.472C177 289.272 -132 236.806 -277.5 228.972H-324V863.972H958C856.833 785.972 640.3 641.172 583.5 685.972C512.5 741.972 339 620.472 249 436.472Z" fill="#269EC9"/>
</g>
</svg>
