<svg width="32" height="30" viewBox="0 0 32 30" fill="none" xmlns="http://www.w3.org/2000/svg">
<path d="M11.6674 22.9725V29.0218C11.6674 29.4444 11.9447 29.8187 12.3554 29.9517C12.458 29.9843 12.5634 30 12.6674 30C12.9794 30 13.2807 29.8565 13.4727 29.6009L17.09 24.7854L11.6674 22.9725Z" fill="white"/>
<path d="M31.58 0.181412C31.2733 -0.0311874 30.8706 -0.0598819 30.5373 0.11098L0.537391 15.4364C0.182725 15.6177 -0.0266073 15.9881 0.00272596 16.3781C0.0333925 16.7694 0.298725 17.1033 0.676057 17.2298L9.01603 20.0184L26.7773 5.16251L13.0334 21.3605L27.0106 26.0338C27.1146 26.0677 27.224 26.086 27.3333 26.086C27.5146 26.086 27.6946 26.0377 27.8533 25.9438C28.1066 25.7925 28.2786 25.5382 28.3226 25.2525L31.9893 1.12311C32.044 0.75791 31.8866 0.395316 31.58 0.181412Z" fill="white"/>
</svg>
